<?xml version="1.0" encoding="UTF-8" standalone="no"?>
<!DOCTYPE svg PUBLIC "-//W3C//DTD SVG 1.1//EN" "http://www.w3.org/Graphics/SVG/1.1/DTD/svg11.dtd">
<svg xmlns="http://www.w3.org/2000/svg" version="1.1" viewBox="0 0 500 500">
<path fill="#302a2c" d="
  M 499.99 274.29
  L 500.00 275.06
  Q 493.13 283.65 482.72 287.48
  C 477.83 289.27 473.04 291.24 467.94 292.34
  C 459.78 294.11 452.35 295.86 443.45 296.83
  C 437.98 297.43 431.91 297.79 427.06 300.65
  Q 423.14 302.97 418.70 304.16
  C 416.80 304.67 414.84 305.87 413.25 306.24
  C 382.95 313.20 350.11 307.57 320.99 298.01
  Q 291.25 288.25 259.39 272.92
  C 218.87 253.42 179.38 230.98 143.21 215.53
  Q 123.68 207.19 98.47 202.31
  C 87.77 200.24 72.45 200.20 63.76 201.02
  C 41.68 203.10 17.79 215.44 10.13 237.36
  C 8.32 242.53 8.81 248.76 8.59 254.49
  A 1.25 1.24 -71.2 0 1 6.63 255.46
  Q 2.09 252.25 0.00 246.69
  L 0.00 232.44
  C 10.49 210.71 35.60 201.50 57.70 197.48
  C 67.97 195.61 79.29 195.91 90.18 195.97
  Q 96.61 196.00 103.26 196.92
  C 116.09 198.69 129.34 201.09 141.70 205.20
  Q 169.82 214.53 189.94 225.05
  Q 249.98 256.45 287.81 274.69
  Q 316.97 288.76 341.81 296.69
  C 361.63 303.02 379.14 305.89 398.68 304.77
  C 406.06 304.35 414.89 303.29 421.56 299.86
  A 0.49 0.49 0.0 0 0 421.33 298.94
  C 398.35 299.54 375.46 297.06 353.32 290.98
  C 335.77 286.15 318.99 280.32 302.05 272.95
  C 267.73 258.01 234.29 240.95 200.80 224.22
  Q 172.37 210.01 134.99 198.54
  Q 128.86 196.66 114.18 194.24
  C 99.46 191.81 83.65 192.73 68.57 193.08
  A 0.52 0.52 0.0 0 1 68.44 192.06
  Q 71.71 191.29 76.32 191.20
  Q 90.65 190.93 105.00 191.02
  Q 108.89 191.04 124.01 193.73
  C 125.85 194.06 128.31 195.02 130.47 195.50
  Q 142.54 198.20 154.25 202.24
  C 189.70 214.47 223.84 232.25 258.05 248.84
  C 281.69 260.30 306.78 269.20 332.00 276.50
  C 345.67 280.45 359.56 282.68 373.55 285.19
  C 394.82 289.00 418.14 288.84 439.68 287.88
  C 444.96 287.64 451.10 274.51 452.39 270.21
  C 453.68 265.93 453.58 256.88 451.89 252.54
  C 444.86 234.53 430.18 225.63 411.30 225.04
  C 401.84 224.74 391.07 224.17 382.07 228.16
  C 368.86 234.01 357.95 241.53 346.30 249.05
  C 334.32 256.78 318.88 261.39 304.82 258.43
  C 290.57 255.42 277.28 248.98 264.21 242.27
  A 0.46 0.46 0.0 0 1 264.09 241.53
  L 264.46 241.17
  Q 264.73 240.89 265.09 241.05
  Q 274.65 245.11 279.44 245.54
  C 291.49 246.60 303.37 247.31 313.19 243.68
  C 325.66 239.07 337.13 233.20 349.06 227.40
  C 364.36 219.96 376.73 215.54 392.59 213.79
  Q 400.11 212.96 407.38 213.97
  C 428.54 216.89 445.94 224.75 453.97 245.34
  C 459.58 259.76 455.21 274.18 446.12 286.21
  Q 445.61 286.87 446.44 286.94
  C 450.37 287.25 454.02 285.93 457.15 285.37
  Q 467.59 283.50 478.00 281.49
  Q 483.55 280.42 499.99 274.29
  Z"
/>
</svg>
